<svg width="166" height="154" viewBox="0 0 166 154" fill="none" xmlns="http://www.w3.org/2000/svg">
<path d="M62.017 125.786C95.7637 125.786 123.121 98.4291 123.121 64.6824C123.121 30.9357 95.7637 3.57861 62.017 3.57861C28.2703 3.57861 0.913177 30.9357 0.913177 64.6824C0.913177 98.4291 28.2703 125.786 62.017 125.786Z" fill="#E6E6E6"/>
<path d="M112.494 3.57861H162.971V16.862H112.494V3.57861Z" fill="white" stroke="#0E1D2B" stroke-width="6" stroke-linecap="round" stroke-linejoin="round"/>
<path d="M112.494 16.8618H162.971V30.1452H112.494V16.8618Z" fill="#9DC1E4" stroke="#0E1D2B" stroke-width="6" stroke-linecap="round" stroke-linejoin="round"/>
<path d="M112.494 30.145H162.971V43.4285H112.494V30.145Z" fill="#38628B" stroke="#0E1D2B" stroke-width="6" stroke-linecap="round" stroke-linejoin="round"/>
<path d="M25.3302 33.4186C25.3302 33.3302 25.4018 33.2586 25.4902 33.2586C25.5786 33.2586 25.6502 33.3302 25.6502 33.4186C25.6502 33.507 25.5786 33.5786 25.4902 33.5786C25.4018 33.5786 25.3302 33.507 25.3302 33.4186Z" fill="#4C241D" stroke="#0E1D2B" stroke-width="6"/>
<path d="M158.164 75.9254C158.164 75.8371 158.236 75.7654 158.324 75.7654C158.413 75.7654 158.484 75.8371 158.484 75.9254C158.484 76.0138 158.413 76.0854 158.324 76.0854C158.236 76.0854 158.164 76.0138 158.164 75.9254Z" fill="#0E1D2B" stroke="#0E1D2B" stroke-width="6"/>
<path d="M134.254 105.149C134.254 105.061 134.326 104.989 134.414 104.989C134.503 104.989 134.574 105.061 134.574 105.149C134.574 105.237 134.503 105.309 134.414 105.309C134.326 105.309 134.254 105.237 134.254 105.149Z" fill="#0E1D2B" stroke="#0E1D2B" stroke-width="6"/>
<path d="M134.254 67.9557C134.254 67.8674 134.326 67.7957 134.414 67.7957C134.503 67.7957 134.574 67.8674 134.574 67.9557C134.574 68.0441 134.503 68.1157 134.414 68.1157C134.326 68.1157 134.254 68.0441 134.254 67.9557Z" fill="#0E1D2B" stroke="#0E1D2B" stroke-width="6"/>
<path d="M35.0303 46.0864H94.3169C95.6148 46.0864 96.8595 46.602 97.7772 47.5197C98.695 48.4375 99.2105 49.6822 99.2105 50.98V91.0163C99.2105 93.8967 98.0663 96.6591 96.0296 98.6959C93.9928 100.733 91.2304 101.877 88.35 101.877H40.9972C38.1168 101.877 35.3544 100.733 33.3177 98.6959C31.2809 96.6591 30.1367 93.8967 30.1367 91.0163V50.98C30.1367 49.6822 30.6523 48.4375 31.57 47.5197C32.4877 46.602 33.7324 46.0864 35.0303 46.0864Z" fill="#FFCE56" stroke="#0E1D2B" stroke-width="6" stroke-linecap="round" stroke-linejoin="round"/>
<path d="M15.7535 5.13574L23.2666 12.6489" stroke="#0E1D2B" stroke-width="6" stroke-linecap="round" stroke-linejoin="round"/>
<path d="M23.2666 5.13574L15.7535 12.6489" stroke="#0E1D2B" stroke-width="6" stroke-linecap="round" stroke-linejoin="round"/>
<path d="M112.494 19.5195V147.04" stroke="#0E1D2B" stroke-width="6" stroke-linecap="round" stroke-linejoin="round"/>
<path d="M156.361 139.867C135.527 132.139 113.461 128.268 91.2405 128.443C56.9533 128.443 25.9657 137.038 3.77173 150.882" stroke="#0E1D2B" stroke-width="6" stroke-linecap="round" stroke-linejoin="round"/>
<path d="M24.8234 69.9969H19.51C16.6916 69.9969 13.9886 68.8773 11.9957 66.8844C10.0028 64.8915 8.88324 62.1885 8.88324 59.3701H24.8234V69.9969Z" fill="white" stroke="#0E1D2B" stroke-width="6" stroke-linecap="round" stroke-linejoin="round"/>
<path d="M104.524 59.3701H120.464" stroke="#0E1D2B" stroke-width="6" stroke-linecap="round" stroke-linejoin="round"/>
<path d="M64.6737 14.2061C71.015 14.2061 77.0967 16.7252 81.5807 21.2092C86.0647 25.6932 88.5839 31.7749 88.5839 38.1162V59.3697H40.7635V38.1162C40.7635 31.7749 43.2826 25.6932 47.7666 21.2092C52.2506 16.7252 58.3323 14.2061 64.6737 14.2061Z" fill="white" stroke="#0E1D2B" stroke-width="6" stroke-linecap="round" stroke-linejoin="round"/>
<path d="M50.2771 35.4592C49.2081 35.4491 48.1595 35.7526 47.2612 36.3322C46.3629 36.9117 45.6542 37.742 45.2227 38.7201C44.7913 39.6983 44.6562 40.7815 44.8339 41.8357C45.0117 42.8899 45.4947 43.8688 46.223 44.6514C51.2708 49.1995 57.8827 51.6177 64.6737 51.3994C71.2835 51.5981 77.7298 49.3246 82.7525 45.0233C83.5703 44.2743 84.1428 43.2957 84.395 42.2158C84.6472 41.1359 84.5674 40.005 84.1659 38.9712C83.7645 37.9375 83.0602 37.049 82.1452 36.4224C81.2303 35.7957 80.1474 35.46 79.0384 35.4592H50.2771Z" fill="#9DC1E4" stroke="#0E1D2B" stroke-width="6" stroke-linecap="round" stroke-linejoin="round"/>
<path d="M104.524 59.3701H24.8233V75.3102H43.4201V136.544C43.4201 139.328 44.526 141.998 46.4945 143.966C48.463 145.935 51.1328 147.041 53.9167 147.041H75.4358C78.2188 147.039 80.8873 145.933 82.8546 143.965C84.8219 141.996 85.9271 139.327 85.9271 136.544V75.3102H104.524V59.3701Z" fill="white" stroke="#0E1D2B" stroke-width="6" stroke-linecap="round" stroke-linejoin="round"/>
<path d="M64.6736 117.816V147.039" stroke="#0E1D2B" stroke-width="6" stroke-linecap="round" stroke-linejoin="round"/>
<path d="M56.7036 77.9658H72.6437" stroke="#0E1D2B" stroke-width="6" stroke-linecap="round" stroke-linejoin="round"/>
<path d="M83.2705 8.89258V22.3726" stroke="#0E1D2B" stroke-width="6" stroke-linecap="round" stroke-linejoin="round"/>
</svg>
