<svg width="169" height="169" viewBox="0 0 169 169" fill="none" xmlns="http://www.w3.org/2000/svg">
<path d="M85.4678 141.907C116.505 141.907 141.665 116.746 141.665 85.7092C141.665 54.6722 116.505 29.5117 85.4678 29.5117C54.4307 29.5117 29.2703 54.6722 29.2703 85.7092C29.2703 116.746 54.4307 141.907 85.4678 141.907Z" fill="#E5EFEF"/>
<path d="M92.0024 11.2146C92.0024 9.13486 91.1762 7.14034 89.7056 5.66977C88.2351 4.1992 86.2405 3.37305 84.1608 3.37305C82.0811 3.37305 80.0866 4.1992 78.6161 5.66977C77.1455 7.14034 76.3193 9.13486 76.3193 11.2146C76.3193 15.5457 84.1608 58.2636 84.1608 58.2636C84.1608 58.2636 92.0024 15.5457 92.0024 11.2146Z" fill="#FFCE56" stroke="#0E1D2B" stroke-width="6" stroke-linecap="round" stroke-linejoin="round"/>
<path d="M84.1608 66.105V71.3327" stroke="#0E1D2B" stroke-width="6" stroke-linecap="round" stroke-linejoin="round"/>
<path d="M92.0024 157.589C92.0024 159.669 91.1762 161.663 89.7056 163.134C88.2351 164.604 86.2405 165.431 84.1608 165.431C82.0811 165.431 80.0866 164.604 78.6161 163.134C77.1455 161.663 76.3193 159.669 76.3193 157.589C76.3193 153.258 84.1608 110.54 84.1608 110.54C84.1608 110.54 92.0024 153.258 92.0024 157.589Z" fill="#FFCE56" stroke="#0E1D2B" stroke-width="6" stroke-linecap="round" stroke-linejoin="round"/>
<path d="M10.9733 76.5605C8.89365 76.5605 6.89913 77.3867 5.42856 78.8573C3.95799 80.3278 3.13184 82.3224 3.13184 84.4021C3.13184 86.4818 3.95799 88.4763 5.42856 89.9468C6.89913 91.4174 8.89365 92.2436 10.9733 92.2436C15.3045 92.2436 58.0224 84.4021 58.0224 84.4021C58.0224 84.4021 15.3045 76.5605 10.9733 76.5605Z" fill="#FFCE56" stroke="#0E1D2B" stroke-width="6" stroke-linecap="round" stroke-linejoin="round"/>
<path d="M157.348 76.5605C159.428 76.5605 161.422 77.3867 162.893 78.8573C164.364 80.3278 165.19 82.3224 165.19 84.4021C165.19 86.4818 164.364 88.4763 162.893 89.9468C161.422 91.4174 159.428 92.2436 157.348 92.2436C153.017 92.2436 110.299 84.4021 110.299 84.4021C110.299 84.4021 153.017 76.5605 157.348 76.5605Z" fill="#FFCE56" stroke="#0E1D2B" stroke-width="6" stroke-linecap="round" stroke-linejoin="round"/>
<path d="M46.281 35.4337C44.8079 34.1315 42.8795 33.465 40.9167 33.5796C38.954 33.6942 37.1162 34.5806 35.8047 36.0453C34.34 37.3568 33.4536 39.1946 33.339 41.1573C33.2244 43.1201 33.8909 45.0485 35.1931 46.5216C37.9167 49.2478 70.3335 70.5689 70.3335 70.5689C70.3335 70.5689 49.0072 38.1573 46.281 35.4337Z" fill="#FFCE56" stroke="#0E1D2B" stroke-width="6" stroke-linecap="round" stroke-linejoin="round"/>
<path d="M133.128 122.282C134.328 123.8 134.929 125.705 134.816 127.637C134.704 129.568 133.886 131.391 132.518 132.759C131.15 134.127 129.327 134.945 127.395 135.058C125.464 135.17 123.558 134.57 122.04 133.37C119.314 130.646 97.9932 98.2295 97.9932 98.2295C97.9932 98.2295 130.405 119.556 133.128 122.282Z" fill="#FFCE56" stroke="#0E1D2B" stroke-width="6" stroke-linecap="round" stroke-linejoin="round"/>
<path d="M35.1931 122.282C33.8909 123.755 33.2244 125.683 33.339 127.646C33.4536 129.609 34.34 131.447 35.8047 132.758C37.1162 134.223 38.954 135.109 40.9167 135.224C42.8795 135.339 44.8079 134.672 46.281 133.37C49.0072 130.646 70.3283 98.2295 70.3283 98.2295C70.3283 98.2295 37.9167 119.556 35.1931 122.282Z" fill="#FFCE56" stroke="#0E1D2B" stroke-width="6" stroke-linecap="round" stroke-linejoin="round"/>
<path d="M122.041 35.4337C123.514 34.1315 125.442 33.465 127.405 33.5796C129.368 33.6942 131.205 34.5806 132.517 36.0453C133.982 37.3568 134.868 39.1946 134.983 41.1573C135.097 43.1201 134.431 45.0485 133.129 46.5216C130.405 49.2478 97.9882 70.5689 97.9882 70.5689C97.9882 70.5689 119.314 38.1573 122.041 35.4337Z" fill="#FFCE56" stroke="#0E1D2B" stroke-width="6" stroke-linecap="round" stroke-linejoin="round"/>
<path d="M84.1608 102.698V97.4702" stroke="#0E1D2B" stroke-width="6" stroke-linecap="round" stroke-linejoin="round"/>
<path d="M65.864 84.4014H71.0917" stroke="#0E1D2B" stroke-width="6" stroke-linecap="round" stroke-linejoin="round"/>
<path d="M102.458 84.4014H97.23" stroke="#0E1D2B" stroke-width="6" stroke-linecap="round" stroke-linejoin="round"/>
<path d="M84.1608 89.6297C87.0479 89.6297 89.3885 87.2892 89.3885 84.402C89.3885 81.5148 87.0479 79.1743 84.1608 79.1743C81.2736 79.1743 78.9331 81.5148 78.9331 84.402C78.9331 87.2892 81.2736 89.6297 84.1608 89.6297Z" stroke="#0E1D2B" stroke-width="6" stroke-linecap="round" stroke-linejoin="round"/>
<path d="M146.507 21.67C146.507 21.4567 146.68 21.2838 146.893 21.2838C147.106 21.2838 147.279 21.4567 147.279 21.67C147.279 21.8833 147.106 22.0562 146.893 22.0562C146.68 22.0562 146.507 21.8833 146.507 21.67Z" fill="#0E1D2B" stroke="#0E1D2B" stroke-width="6"/>
<path d="M21.0426 147.134C21.0426 146.921 21.2155 146.748 21.4288 146.748C21.6421 146.748 21.8149 146.921 21.8149 147.134C21.8149 147.347 21.6421 147.52 21.4288 147.52C21.2155 147.52 21.0426 147.347 21.0426 147.134Z" fill="#0E1D2B" stroke="#0E1D2B" stroke-width="6"/>
<path d="M21.0426 21.67C21.0426 21.4567 21.2155 21.2838 21.4288 21.2838C21.6421 21.2838 21.8149 21.4567 21.8149 21.67C21.8149 21.8833 21.6421 22.0562 21.4288 22.0562C21.2155 22.0562 21.0426 21.8833 21.0426 21.67Z" fill="#0E1D2B" stroke="#0E1D2B" stroke-width="6"/>
<path d="M146.507 147.134C146.507 146.921 146.68 146.748 146.893 146.748C147.106 146.748 147.279 146.921 147.279 147.134C147.279 147.347 147.106 147.52 146.893 147.52C146.68 147.52 146.507 147.347 146.507 147.134Z" fill="#0E1D2B" stroke="#0E1D2B" stroke-width="6"/>
</svg>
