<svg width="169" height="169" viewBox="0 0 169 169" fill="none" xmlns="http://www.w3.org/2000/svg">
<path d="M93.6496 154.475C129.271 154.475 158.148 125.598 158.148 89.9771C158.148 54.3558 129.271 25.479 93.6496 25.479C58.0283 25.479 29.1515 54.3558 29.1515 89.9771C29.1515 125.598 58.0283 154.475 93.6496 154.475Z" fill="#E6E6E6"/>
<path d="M62.7268 16.126C57.7056 16.1611 52.9025 18.1826 49.3673 21.7485C45.8311 18.1824 41.027 16.161 36.005 16.126C24.9365 16.126 15.9629 25.9409 15.9629 38.0722C15.9629 50.2034 39.3448 70.9887 49.3673 78.305C59.3869 70.9887 82.7689 50.1922 82.7689 38.0722C82.7689 25.9521 73.7953 16.126 62.7268 16.126Z" fill="#38628B" stroke="#0E1D2B" stroke-width="6" stroke-linecap="round" stroke-linejoin="round"/>
<path d="M138.442 91.8423C133.421 91.8774 128.618 93.8989 125.083 97.4648C121.546 93.8987 116.742 91.8773 111.72 91.8423C100.652 91.8423 91.6782 101.657 91.6782 113.788C91.6782 125.92 115.06 146.705 125.083 154.021C135.102 146.705 158.484 125.909 158.484 113.788C158.484 101.668 149.511 91.8423 138.442 91.8423Z" fill="white" stroke="#0E1D2B" stroke-width="6" stroke-linecap="round" stroke-linejoin="round"/>
<path d="M71.2156 89.9771V95.5856" stroke="#0E1D2B" stroke-width="6" stroke-linecap="round" stroke-linejoin="round"/>
<path d="M71.2156 106.803V112.411" stroke="#0E1D2B" stroke-width="6" stroke-linecap="round" stroke-linejoin="round"/>
<path d="M59.9984 101.194H65.6069" stroke="#0E1D2B" stroke-width="6" stroke-linecap="round" stroke-linejoin="round"/>
<path d="M76.824 101.194H82.4326" stroke="#0E1D2B" stroke-width="6" stroke-linecap="round" stroke-linejoin="round"/>
<path d="M103.465 19.8705C107.336 19.8705 110.475 16.7317 110.475 12.8598C110.475 8.9879 107.336 5.84912 103.465 5.84912C99.5927 5.84912 96.4539 8.9879 96.4539 12.8598C96.4539 16.7317 99.5927 19.8705 103.465 19.8705Z" stroke="#0E1D2B" stroke-width="6" stroke-linecap="round" stroke-linejoin="round"/>
<path d="M10.9237 165.692C14.7956 165.692 17.9344 162.553 17.9344 158.681C17.9344 154.809 14.7956 151.67 10.9237 151.67C7.05184 151.67 3.91306 154.809 3.91306 158.681C3.91306 162.553 7.05184 165.692 10.9237 165.692Z" stroke="#0E1D2B" stroke-width="6" stroke-linecap="round" stroke-linejoin="round"/>
<mask id="path-10-inside-1_70_223" fill="white">
<path d="M89.8667 73.4309C89.8667 74.0238 89.6909 74.6034 89.3615 75.0963C89.0321 75.5893 88.5639 75.9735 88.0161 76.2004C87.4683 76.4273 86.8656 76.4867 86.2841 76.371C85.7026 76.2554 85.1684 75.9699 84.7492 75.5506C84.3299 75.1314 84.0444 74.5972 83.9288 74.0157C83.8131 73.4342 83.8725 72.8314 84.0993 72.2837C84.3262 71.7359 84.7105 71.2677 85.2035 70.9383C85.6964 70.6089 86.276 70.4331 86.8689 70.4331C87.664 70.4331 88.4265 70.7489 88.9887 71.3111C89.5508 71.8733 89.8667 72.6358 89.8667 73.4309Z"/>
</mask>
<path d="M89.8667 73.4309C89.8667 74.0238 89.6909 74.6034 89.3615 75.0963C89.0321 75.5893 88.5639 75.9735 88.0161 76.2004C87.4683 76.4273 86.8656 76.4867 86.2841 76.371C85.7026 76.2554 85.1684 75.9699 84.7492 75.5506C84.3299 75.1314 84.0444 74.5972 83.9288 74.0157C83.8131 73.4342 83.8725 72.8314 84.0993 72.2837C84.3262 71.7359 84.7105 71.2677 85.2035 70.9383C85.6964 70.6089 86.276 70.4331 86.8689 70.4331C87.664 70.4331 88.4265 70.7489 88.9887 71.3111C89.5508 71.8733 89.8667 72.6358 89.8667 73.4309Z" fill="#0E1D2B"/>
<path d="M86.8689 70.4331V64.4331V70.4331ZM83.8667 73.4309C83.8667 72.8371 84.0428 72.2566 84.3726 71.7629L94.3503 78.4298C95.339 76.9501 95.8667 75.2105 95.8667 73.4309H83.8667ZM84.3726 71.7629C84.7025 71.2692 85.1714 70.8844 85.72 70.6572L90.3122 81.7437C91.9563 81.0627 93.3616 79.9094 94.3503 78.4298L84.3726 71.7629ZM85.72 70.6572C86.2686 70.4299 86.8722 70.3705 87.4546 70.4863L85.1135 82.2557C86.859 82.6029 88.6681 82.4247 90.3122 81.7437L85.72 70.6572ZM87.4546 70.4863C88.037 70.6022 88.5719 70.8881 88.9918 71.308L80.5065 79.7932C81.7649 81.0516 83.3682 81.9086 85.1135 82.2557L87.4546 70.4863ZM88.9918 71.308C89.4117 71.7278 89.6976 72.2628 89.8135 72.8452L78.044 75.1862C78.3912 76.9316 79.2482 78.5349 80.5065 79.7932L88.9918 71.308ZM89.8135 72.8452C89.9293 73.4276 89.8699 74.0312 89.6426 74.5798L78.5561 69.9876C77.8751 71.6317 77.6969 73.4408 78.044 75.1862L89.8135 72.8452ZM89.6426 74.5798C89.4154 75.1283 89.0306 75.5972 88.5369 75.9271L81.87 65.9495C80.3903 66.9382 79.2371 68.3435 78.5561 69.9876L89.6426 74.5798ZM88.5369 75.9271C88.0432 76.257 87.4627 76.4331 86.8689 76.4331V64.4331C85.0893 64.4331 83.3497 64.9608 81.87 65.9495L88.5369 75.9271ZM86.8689 76.4331C86.0727 76.4331 85.309 76.1168 84.746 75.5538L93.2313 67.0685C91.5439 65.3811 89.2553 64.4331 86.8689 64.4331V76.4331ZM84.746 75.5538C84.183 74.9907 83.8667 74.2271 83.8667 73.4309H95.8667C95.8667 71.0445 94.9187 68.7559 93.2313 67.0685L84.746 75.5538Z" fill="#0E1D2B" mask="url(#path-10-inside-1_70_223)"/>
<mask id="path-12-inside-2_70_223" fill="white">
<path d="M165.582 67.8225C165.582 68.4154 165.406 68.995 165.076 69.4879C164.747 69.9809 164.279 70.3651 163.731 70.592C163.183 70.8189 162.581 70.8783 161.999 70.7626C161.418 70.647 160.883 70.3615 160.464 69.9422C160.045 69.523 159.759 68.9888 159.644 68.4073C159.528 67.8258 159.587 67.223 159.814 66.6753C160.041 66.1275 160.425 65.6593 160.918 65.3299C161.411 65.0005 161.991 64.8247 162.584 64.8247C163.379 64.8247 164.142 65.1405 164.704 65.7027C165.266 66.2649 165.582 67.0274 165.582 67.8225Z"/>
</mask>
<path d="M165.582 67.8225C165.582 68.4154 165.406 68.995 165.076 69.4879C164.747 69.9809 164.279 70.3651 163.731 70.592C163.183 70.8189 162.581 70.8783 161.999 70.7626C161.418 70.647 160.883 70.3615 160.464 69.9422C160.045 69.523 159.759 68.9888 159.644 68.4073C159.528 67.8258 159.587 67.223 159.814 66.6753C160.041 66.1275 160.425 65.6593 160.918 65.3299C161.411 65.0005 161.991 64.8247 162.584 64.8247C163.379 64.8247 164.142 65.1405 164.704 65.7027C165.266 66.2649 165.582 67.0274 165.582 67.8225Z" fill="#0E1D2B"/>
<path d="M162.584 64.8247V58.8247V64.8247ZM159.582 67.8225C159.582 67.2287 159.758 66.6482 160.088 66.1545L170.065 72.8214C171.054 71.3417 171.582 69.6021 171.582 67.8225H159.582ZM160.088 66.1545C160.418 65.6608 160.886 65.276 161.435 65.0488L166.027 76.1353C167.671 75.4543 169.077 74.301 170.065 72.8214L160.088 66.1545ZM161.435 65.0488C161.984 64.8215 162.587 64.7621 163.17 64.8779L160.829 76.6473C162.574 76.9945 164.383 76.8163 166.027 76.1353L161.435 65.0488ZM163.17 64.8779C163.752 64.9938 164.287 65.2797 164.707 65.6996L156.222 74.1848C157.48 75.4432 159.083 76.3002 160.829 76.6473L163.17 64.8779ZM164.707 65.6996C165.127 66.1194 165.413 66.6544 165.528 67.2368L153.759 69.5778C154.106 71.3233 154.963 72.9265 156.222 74.1848L164.707 65.6996ZM165.528 67.2368C165.644 67.8192 165.585 68.4228 165.358 68.9714L154.271 64.3792C153.59 66.0233 153.412 67.8324 153.759 69.5778L165.528 67.2368ZM165.358 68.9714C165.13 69.52 164.746 69.9888 164.252 70.3187L157.585 60.3411C156.105 61.3298 154.952 62.7351 154.271 64.3792L165.358 68.9714ZM164.252 70.3187C163.758 70.6486 163.178 70.8247 162.584 70.8247V58.8247C160.804 58.8247 159.065 59.3524 157.585 60.3411L164.252 70.3187ZM162.584 70.8247C161.788 70.8247 161.024 70.5084 160.461 69.9454L168.946 61.4601C167.259 59.7727 164.97 58.8247 162.584 58.8247V70.8247ZM160.461 69.9454C159.898 69.3823 159.582 68.6187 159.582 67.8225H171.582C171.582 65.4361 170.634 63.1475 168.946 61.4601L160.461 69.9454Z" fill="#0E1D2B" mask="url(#path-12-inside-2_70_223)"/>
<mask id="path-14-inside-3_70_223" fill="white">
<path d="M16.9559 3.32466C16.9548 3.91732 16.7781 4.49636 16.448 4.9886C16.1179 5.48084 15.6494 5.8642 15.1015 6.09023C14.5536 6.31626 13.9511 6.37483 13.3699 6.25853C12.7888 6.14222 12.2551 5.85627 11.8365 5.43681C11.4178 5.01734 11.1328 4.48318 11.0176 3.90183C10.9024 3.32047 10.9621 2.71801 11.1891 2.17057C11.4162 1.62312 11.8004 1.15527 12.2933 0.826116C12.7862 0.496965 13.3655 0.32129 13.9582 0.321289C14.3523 0.321288 14.7426 0.399013 15.1067 0.550016C15.4707 0.701018 15.8015 0.922333 16.0799 1.2013C16.3583 1.48026 16.579 1.81139 16.7294 2.17574C16.8797 2.5401 16.9567 2.93052 16.9559 3.32466Z"/>
</mask>
<path d="M16.9559 3.32466C16.9548 3.91732 16.7781 4.49636 16.448 4.9886C16.1179 5.48084 15.6494 5.8642 15.1015 6.09023C14.5536 6.31626 13.9511 6.37483 13.3699 6.25853C12.7888 6.14222 12.2551 5.85627 11.8365 5.43681C11.4178 5.01734 11.1328 4.48318 11.0176 3.90183C10.9024 3.32047 10.9621 2.71801 11.1891 2.17057C11.4162 1.62312 11.8004 1.15527 12.2933 0.826116C12.7862 0.496965 13.3655 0.32129 13.9582 0.321289C14.3523 0.321288 14.7426 0.399013 15.1067 0.550016C15.4707 0.701018 15.8015 0.922333 16.0799 1.2013C16.3583 1.48026 16.579 1.81139 16.7294 2.17574C16.8797 2.5401 16.9567 2.93052 16.9559 3.32466Z" fill="#0E1D2B"/>
<path d="M13.9582 0.321289L13.9582 6.32129L13.9582 0.321289ZM10.9559 3.31343C10.9571 2.71989 11.1341 2.13999 11.4646 1.64701L21.4314 8.33018C22.4221 6.85272 22.9526 5.11475 22.9559 3.33588L10.9559 3.31343ZM11.4646 1.64701C11.7952 1.15404 12.2645 0.770107 12.8132 0.543736L17.3898 11.6367C19.0342 10.9583 20.4406 9.80764 21.4314 8.33018L11.4646 1.64701ZM12.8132 0.543736C13.3619 0.317364 13.9653 0.258712 14.5473 0.375187L12.1925 12.1419C13.9368 12.4909 15.7454 12.3152 17.3898 11.6367L12.8132 0.543736ZM14.5473 0.375187C15.1293 0.491661 15.6638 0.778037 16.0831 1.19813L7.58986 9.67548C8.84654 10.9345 10.4482 11.7928 12.1925 12.1419L14.5473 0.375187ZM16.0831 1.19813C16.5024 1.61823 16.7878 2.15319 16.9031 2.73541L5.13208 5.06825C5.4779 6.81317 6.33318 8.41645 7.58986 9.67548L16.0831 1.19813ZM16.9031 2.73541C17.0185 3.31762 16.9588 3.92099 16.7314 4.46925L5.64694 -0.12812C4.96543 1.51503 4.78626 3.32332 5.13208 5.06825L16.9031 2.73541ZM16.7314 4.46925C16.504 5.01751 16.1191 5.48607 15.6256 5.81571L8.96103 -4.16348C7.48172 -3.17553 6.32845 -1.77127 5.64694 -0.12812L16.7314 4.46925ZM15.6256 5.81571C15.132 6.14535 14.5517 6.32129 13.9582 6.32129L13.9582 -5.67871C12.1793 -5.67871 10.4403 -5.15142 8.96103 -4.16348L15.6256 5.81571ZM13.9582 6.32129C13.5635 6.32129 13.1726 6.24345 12.808 6.09222L17.4054 -4.99219C16.3126 -5.44542 15.1412 -5.67871 13.9582 -5.67871L13.9582 6.32129ZM12.808 6.09222C12.4434 5.94099 12.1122 5.71935 11.8333 5.43997L20.3265 -3.03738C19.4908 -3.87468 18.4981 -4.53896 17.4054 -4.99219L12.808 6.09222ZM11.8333 5.43997C11.5544 5.16059 11.3334 4.82897 11.1829 4.46407L22.2759 -0.112579C21.8247 -1.20619 21.1622 -2.20008 20.3265 -3.03738L11.8333 5.43997ZM11.1829 4.46407C11.0323 4.09917 10.9552 3.70817 10.9559 3.31343L22.9559 3.33588C22.9581 2.15286 22.727 0.98102 22.2759 -0.112579L11.1829 4.46407Z" fill="#0E1D2B" mask="url(#path-14-inside-3_70_223)"/>
<mask id="path-16-inside-4_70_223" fill="white">
<path d="M162.778 154.755C162.778 155.348 162.602 155.928 162.272 156.421C161.943 156.914 161.475 157.298 160.927 157.525C160.379 157.752 159.776 157.811 159.195 157.695C158.613 157.58 158.079 157.294 157.66 156.875C157.241 156.456 156.955 155.921 156.84 155.34C156.724 154.758 156.783 154.156 157.01 153.608C157.237 153.06 157.621 152.592 158.114 152.263C158.607 151.933 159.187 151.757 159.78 151.757C160.173 151.757 160.563 151.835 160.927 151.986C161.291 152.136 161.621 152.357 161.9 152.635C162.178 152.914 162.399 153.244 162.549 153.608C162.7 153.972 162.778 154.361 162.778 154.755Z"/>
</mask>
<path d="M162.778 154.755C162.778 155.348 162.602 155.928 162.272 156.421C161.943 156.914 161.475 157.298 160.927 157.525C160.379 157.752 159.776 157.811 159.195 157.695C158.613 157.58 158.079 157.294 157.66 156.875C157.241 156.456 156.955 155.921 156.84 155.34C156.724 154.758 156.783 154.156 157.01 153.608C157.237 153.06 157.621 152.592 158.114 152.263C158.607 151.933 159.187 151.757 159.78 151.757C160.173 151.757 160.563 151.835 160.927 151.986C161.291 152.136 161.621 152.357 161.9 152.635C162.178 152.914 162.399 153.244 162.549 153.608C162.7 153.972 162.778 154.361 162.778 154.755Z" fill="#0E1D2B"/>
<path d="M162.778 154.755H168.778H162.778ZM159.78 151.757V145.757V151.757ZM156.778 154.755C156.778 154.161 156.954 153.581 157.284 153.087L167.261 159.754C168.25 158.274 168.778 156.535 168.778 154.755H156.778ZM157.284 153.087C157.613 152.593 158.082 152.209 158.631 151.981L163.223 163.068C164.867 162.387 166.272 161.234 167.261 159.754L157.284 153.087ZM158.631 151.981C159.179 151.754 159.783 151.695 160.366 151.811L158.024 163.58C159.77 163.927 161.579 163.749 163.223 163.068L158.631 151.981ZM160.366 151.811C160.948 151.926 161.483 152.212 161.903 152.632L153.417 161.117C154.676 162.376 156.279 163.233 158.024 163.58L160.366 151.811ZM161.903 152.632C162.323 153.052 162.609 153.587 162.724 154.169L150.955 156.51C151.302 158.256 152.159 159.859 153.417 161.117L161.903 152.632ZM162.724 154.169C162.84 154.752 162.781 155.355 162.554 155.904L151.467 151.312C150.786 152.956 150.608 154.765 150.955 156.51L162.724 154.169ZM162.554 155.904C162.326 156.453 161.941 156.921 161.448 157.251L154.781 147.274C153.301 148.262 152.148 149.668 151.467 151.312L162.554 155.904ZM161.448 157.251C160.954 157.581 160.374 157.757 159.78 157.757V145.757C158 145.757 156.261 146.285 154.781 147.274L161.448 157.251ZM159.78 157.757C159.385 157.757 158.995 157.68 158.631 157.529L163.223 146.442C162.132 145.99 160.961 145.757 159.78 145.757V157.757ZM158.631 157.529C158.267 157.378 157.936 157.157 157.657 156.878L166.142 148.393C165.307 147.557 164.315 146.894 163.223 146.442L158.631 157.529ZM157.657 156.878C157.378 156.599 157.157 156.268 157.006 155.904L168.093 151.312C167.641 150.22 166.978 149.228 166.142 148.393L157.657 156.878ZM157.006 155.904C156.855 155.54 156.778 155.149 156.778 154.755H168.778C168.778 153.573 168.545 152.403 168.093 151.312L157.006 155.904Z" fill="#0E1D2B" mask="url(#path-16-inside-4_70_223)"/>
<mask id="path-18-inside-5_70_223" fill="white">
<path d="M14.1513 81.8444C14.1513 82.4373 13.9755 83.0169 13.6461 83.5099C13.3167 84.0029 12.8485 84.3871 12.3007 84.614C11.753 84.8409 11.1502 84.9003 10.5687 84.7846C9.98721 84.6689 9.45306 84.3834 9.03382 83.9642C8.61457 83.5449 8.32906 83.0108 8.21339 82.4293C8.09773 81.8478 8.15709 81.245 8.38398 80.6972C8.61088 80.1495 8.99511 79.6813 9.48809 79.3519C9.98107 79.0225 10.5607 78.8467 11.1536 78.8467C11.9486 78.8467 12.7111 79.1625 13.2733 79.7247C13.8355 80.2869 14.1513 81.0494 14.1513 81.8444Z"/>
</mask>
<path d="M14.1513 81.8444C14.1513 82.4373 13.9755 83.0169 13.6461 83.5099C13.3167 84.0029 12.8485 84.3871 12.3007 84.614C11.753 84.8409 11.1502 84.9003 10.5687 84.7846C9.98721 84.6689 9.45306 84.3834 9.03382 83.9642C8.61457 83.5449 8.32906 83.0108 8.21339 82.4293C8.09773 81.8478 8.15709 81.245 8.38398 80.6972C8.61088 80.1495 8.99511 79.6813 9.48809 79.3519C9.98107 79.0225 10.5607 78.8467 11.1536 78.8467C11.9486 78.8467 12.7111 79.1625 13.2733 79.7247C13.8355 80.2869 14.1513 81.0494 14.1513 81.8444Z" fill="#0E1D2B"/>
<path d="M14.1513 81.8444H20.1513H14.1513ZM11.1536 78.8467V72.8467V78.8467ZM8.15132 81.8444C8.15132 81.2507 8.32739 80.6702 8.65729 80.1765L18.6349 86.8433C19.6236 85.3636 20.1513 83.624 20.1513 81.8444H8.15132ZM8.65729 80.1765C8.98718 79.6828 9.45606 79.298 10.0046 79.0707L14.5968 90.1573C16.241 89.4763 17.6462 88.323 18.6349 86.8433L8.65729 80.1765ZM10.0046 79.0707C10.5532 78.8435 11.1569 78.784 11.7393 78.8999L9.39818 90.6693C11.1436 91.0165 12.9527 90.8383 14.5968 90.1573L10.0046 79.0707ZM11.7393 78.8999C12.3217 79.0157 12.8566 79.3017 13.2765 79.7215L4.79118 88.2068C6.04951 89.4652 7.65275 90.3221 9.39818 90.6693L11.7393 78.8999ZM13.2765 79.7215C13.6963 80.1414 13.9823 80.6763 14.0981 81.2587L2.32868 83.5998C2.67587 85.3452 3.53283 86.9485 4.79118 88.2068L13.2765 79.7215ZM14.0981 81.2587C14.2139 81.8411 14.1545 82.4448 13.9273 82.9934L2.84071 78.4011C2.15969 80.0453 1.9815 81.8544 2.32868 83.5998L14.0981 81.2587ZM13.9273 82.9934C13.7 83.5419 13.3152 84.0108 12.8215 84.3407L6.15467 74.3631C4.67498 75.3518 3.52172 76.757 2.84071 78.4011L13.9273 82.9934ZM12.8215 84.3407C12.3278 84.6706 11.7473 84.8467 11.1536 84.8467V72.8467C9.37397 72.8467 7.63435 73.3744 6.15467 74.3631L12.8215 84.3407ZM11.1536 84.8467C10.3573 84.8467 9.59369 84.5304 9.03065 83.9673L17.5159 75.4821C15.8285 73.7947 13.5399 72.8467 11.1536 72.8467V84.8467ZM9.03065 83.9673C8.46763 83.4043 8.15132 82.6407 8.15132 81.8444H20.1513C20.1513 79.4581 19.2033 77.1695 17.5159 75.4821L9.03065 83.9673Z" fill="#0E1D2B" mask="url(#path-18-inside-5_70_223)"/>
<path d="M127.413 43.6777C125.483 43.6911 123.637 44.4674 122.278 45.837C120.918 44.4677 119.071 43.6916 117.141 43.6777C115.001 43.7795 112.99 44.725 111.546 46.307C110.102 47.8891 109.344 49.9788 109.438 52.1186C109.438 56.7765 118.411 64.7714 122.278 67.5841C126.129 64.7798 135.116 56.7765 135.116 52.1186C135.21 49.9788 134.452 47.8891 133.008 46.307C131.564 44.725 129.552 43.7795 127.413 43.6777Z" fill="#FFCE56" stroke="#0E1D2B" stroke-width="6" stroke-linecap="round" stroke-linejoin="round"/>
<path d="M158.26 4.41846C156.33 4.43184 154.484 5.2081 153.125 6.57774C151.765 5.20844 149.918 4.43232 147.988 4.41846C145.848 4.52027 143.836 5.46572 142.393 7.04776C140.949 8.6298 140.191 10.7195 140.284 12.8593C140.284 17.5172 149.258 25.5122 153.125 28.3248C156.975 25.5206 165.963 17.5172 165.963 12.8593C166.057 10.7195 165.299 8.6298 163.855 7.04776C162.411 5.46572 160.399 4.52027 158.26 4.41846Z" fill="white" stroke="#0E1D2B" stroke-width="6" stroke-linecap="round" stroke-linejoin="round"/>
<path d="M37.6764 102.568C35.7469 102.581 33.901 103.357 32.5418 104.727C31.1813 103.358 29.3347 102.582 27.4044 102.568C25.265 102.67 23.2531 103.615 21.8093 105.197C20.3655 106.779 19.6074 108.869 19.7011 111.009C19.7011 115.667 28.6888 123.662 32.5418 126.474C36.3921 123.67 45.3798 115.667 45.3798 111.009C45.4734 108.869 44.7154 106.779 43.2716 105.197C41.8277 103.615 39.8158 102.67 37.6764 102.568Z" fill="#FFCE56" stroke="#0E1D2B" stroke-width="6" stroke-linecap="round" stroke-linejoin="round"/>
<path d="M74.1318 136.219C72.2022 136.232 70.3564 137.008 68.9972 138.378C67.6366 137.009 65.79 136.233 63.8598 136.219C61.7203 136.321 59.7085 137.266 58.2646 138.848C56.8208 140.43 56.0628 142.52 56.1564 144.66C56.1564 149.317 65.1441 157.312 68.9972 160.125C72.8474 157.321 81.8351 149.317 81.8351 144.66C81.9288 142.52 81.1707 140.43 79.7269 138.848C78.2831 137.266 76.2712 136.321 74.1318 136.219Z" fill="#38628B" stroke="#0E1D2B" stroke-width="6" stroke-linecap="round" stroke-linejoin="round"/>
</svg>
