<svg width="169" height="166" viewBox="0 0 169 166" fill="none" xmlns="http://www.w3.org/2000/svg">
<path d="M70.1902 148.551C105.682 148.551 134.455 119.779 134.455 84.2863C134.455 48.7941 105.682 20.022 70.1902 20.022C34.698 20.022 5.9259 48.7941 5.9259 84.2863C5.9259 119.779 34.698 148.551 70.1902 148.551Z" fill="#E5EFEF"/>
<path d="M14.3081 3.25684V8.84504" stroke="#0E1D2B" stroke-width="6" stroke-linecap="round" stroke-linejoin="round"/>
<path d="M14.3081 20.022V25.6102" stroke="#0E1D2B" stroke-width="6" stroke-linecap="round" stroke-linejoin="round"/>
<path d="M3.13184 14.4341H8.72004" stroke="#0E1D2B" stroke-width="6" stroke-linecap="round" stroke-linejoin="round"/>
<path d="M19.8965 14.4341H25.4847" stroke="#0E1D2B" stroke-width="6" stroke-linecap="round" stroke-linejoin="round"/>
<mask id="path-6-inside-1_70_269" fill="white">
<path d="M17.3312 52.621C17.3323 53.2119 17.1581 53.79 16.8305 54.2819C16.503 54.7738 16.0369 55.1575 15.4912 55.3845C14.9455 55.6114 14.3448 55.6713 13.765 55.5567C13.1853 55.4421 12.6525 55.1581 12.2342 54.7406C11.816 54.3231 11.5309 53.7909 11.4152 53.2113C11.2995 52.6318 11.3583 52.0309 11.5843 51.4848C11.8102 50.9387 12.193 50.4719 12.6843 50.1434C13.1756 49.815 13.7533 49.6396 14.3443 49.6396C15.1353 49.6404 15.8937 49.9545 16.4536 50.5133C17.0134 51.0721 17.329 51.83 17.3312 52.621Z"/>
</mask>
<path d="M17.3312 52.621C17.3323 53.2119 17.1581 53.79 16.8305 54.2819C16.503 54.7738 16.0369 55.1575 15.4912 55.3845C14.9455 55.6114 14.3448 55.6713 13.765 55.5567C13.1853 55.4421 12.6525 55.1581 12.2342 54.7406C11.816 54.3231 11.5309 53.7909 11.4152 53.2113C11.2995 52.6318 11.3583 52.0309 11.5843 51.4848C11.8102 50.9387 12.193 50.4719 12.6843 50.1434C13.1756 49.815 13.7533 49.6396 14.3443 49.6396C15.1353 49.6404 15.8937 49.9545 16.4536 50.5133C17.0134 51.0721 17.329 51.83 17.3312 52.621Z" fill="#0E1D2B"/>
<path d="M17.3312 52.621L23.3312 52.6097L23.3312 52.6041L17.3312 52.621ZM14.3443 49.6396L14.3499 43.6396H14.3443L14.3443 49.6396ZM11.3312 52.6322C11.3301 52.036 11.5059 51.4529 11.8363 50.9567L21.8248 57.6072C22.8103 56.1271 23.3345 54.3879 23.3312 52.6097L11.3312 52.6322ZM11.8363 50.9567C12.1667 50.4604 12.6369 50.0733 13.1873 49.8444L17.7951 60.9245C19.437 60.2417 20.8393 59.0872 21.8248 57.6072L11.8363 50.9567ZM13.1873 49.8444C13.7378 49.6155 14.3438 49.555 14.9287 49.6706L12.6014 61.4428C14.3458 61.7877 16.1533 61.6073 17.7951 60.9245L13.1873 49.8444ZM14.9287 49.6706C15.5136 49.7863 16.051 50.0728 16.4729 50.494L7.99558 58.9872C9.25409 60.2433 10.857 61.0979 12.6014 61.4428L14.9287 49.6706ZM16.4729 50.494C16.8949 50.9151 17.1824 51.452 17.2991 52.0366L5.53134 54.386C5.87947 56.1297 6.73706 57.731 7.99558 58.9872L16.4729 50.494ZM17.2991 52.0366C17.4158 52.6213 17.3565 53.2274 17.1286 53.7783L6.0399 49.1913C5.3602 50.8344 5.18321 52.6423 5.53134 54.386L17.2991 52.0366ZM17.1286 53.7783C16.9007 54.3292 16.5145 54.8001 16.0189 55.1315L9.34971 45.1554C7.87146 46.1436 6.7196 47.5482 6.0399 49.1913L17.1286 53.7783ZM16.0189 55.1315C15.5233 55.4628 14.9405 55.6396 14.3443 55.6396L14.3443 43.6396C12.5662 43.6397 10.828 44.1671 9.34971 45.1554L16.0189 55.1315ZM14.3387 55.6396C13.5423 55.6389 12.7786 55.3226 12.2149 54.7599L20.6922 46.2667C19.0089 44.5865 16.7283 43.6419 14.3499 43.6397L14.3387 55.6396ZM12.2149 54.7599C11.6512 54.1973 11.3335 53.4342 11.3312 52.6378L23.3312 52.6041C23.3245 50.2257 22.3756 47.9469 20.6922 46.2667L12.2149 54.7599Z" fill="#0E1D2B" mask="url(#path-6-inside-1_70_269)"/>
<path d="M134.455 61.9333C145.257 61.9333 154.013 53.1766 154.013 42.3746C154.013 31.5727 145.257 22.8159 134.455 22.8159C123.653 22.8159 114.896 31.5727 114.896 42.3746C114.896 53.1766 123.653 61.9333 134.455 61.9333Z" fill="white" stroke="#0E1D2B" stroke-width="6" stroke-linecap="round" stroke-linejoin="round"/>
<path d="M59.0138 61.9333C69.8158 61.9333 78.5725 53.1766 78.5725 42.3746C78.5725 31.5727 69.8158 22.8159 59.0138 22.8159C48.2118 22.8159 39.4551 31.5727 39.4551 42.3746C39.4551 53.1766 48.2118 61.9333 59.0138 61.9333Z" fill="white" stroke="#0E1D2B" stroke-width="6" stroke-linecap="round" stroke-linejoin="round"/>
<path d="M132.454 61.9329C123.911 62.2721 115.837 65.9303 109.949 72.1296C104.061 78.329 100.824 86.5805 100.925 95.1296V106.639C100.925 108.121 100.337 109.542 99.2886 110.59C98.2406 111.638 96.8192 112.227 95.3372 112.227C93.8551 112.227 92.4337 111.638 91.3857 110.59C90.3377 109.542 89.749 108.121 89.749 106.639V95.1296C89.8502 86.58 86.6124 78.3281 80.724 72.1287C74.8355 65.9293 66.761 62.2714 58.2175 61.9329C53.9476 61.8531 49.7046 62.6252 45.7365 64.2042C41.7684 65.7832 38.155 68.1374 35.1073 71.1292C32.0596 74.1209 29.6389 77.6901 27.9867 81.6283C26.3345 85.5664 25.4839 89.7944 25.4846 94.0651V112.227C25.4846 125.565 30.7834 138.358 40.2153 147.79C49.6473 157.222 62.4397 162.521 75.7784 162.521H114.896C128.235 162.521 141.027 157.222 150.459 147.79C159.891 138.358 165.19 125.565 165.19 112.227V94.0651C165.19 89.7942 164.34 85.5659 162.687 81.6276C161.035 77.6893 158.614 74.1199 155.566 71.1281C152.518 68.1364 148.904 65.7822 144.936 64.2034C140.967 62.6246 136.724 61.8527 132.454 61.9329Z" fill="white" stroke="#0E1D2B" stroke-width="6" stroke-linecap="round" stroke-linejoin="round"/>
<path d="M109.961 80.5161C104.947 80.5528 100.15 82.5706 96.6168 86.1295C93.083 82.5699 88.285 80.5521 83.2694 80.5161C72.2159 80.5161 63.2524 90.329 63.2524 102.436C63.2524 114.543 86.6083 135.314 96.6168 142.621C106.625 135.314 129.984 114.54 129.984 102.447C129.984 90.3541 121.018 80.5161 109.961 80.5161Z" fill="#FFCE56" stroke="#0E1D2B" stroke-width="6" stroke-linecap="round" stroke-linejoin="round"/>
</svg>
